<svg width="22" height="23" viewBox="0 0 22 23" fill="none" xmlns="http://www.w3.org/2000/svg">
<path d="M10.2638 20.5201L10.2556 20.5113L10.247 20.5028L1.99702 12.2528C1.55658 11.8123 1.55658 11.1414 1.99702 10.7009L10.247 2.45094C10.6875 2.0105 11.3584 2.0105 11.7989 2.45094L20.0489 10.7009C20.4893 11.1414 20.4893 11.8123 20.0489 12.2528L11.7989 20.5028C11.3486 20.953 10.6458 20.9276 10.2638 20.5201Z" stroke="white" stroke-width="1.5"/>
<path d="M10.466 15.2333L9.99392 15.0759L10.466 15.2333C10.467 15.2303 10.4697 15.2225 10.4838 15.2045C10.5016 15.1816 10.525 15.1573 10.5744 15.1079C10.6177 15.0646 10.6901 15.018 10.7456 14.9995C10.8829 14.9537 10.9517 14.9335 11.0459 14.9335C11.14 14.9335 11.2088 14.9537 11.3461 14.9995C11.4016 15.018 11.474 15.0646 11.5173 15.1079L11.8709 14.7543L11.5173 15.1079C11.5667 15.1573 11.5901 15.1816 11.608 15.2045C11.622 15.2225 11.6247 15.2303 11.6257 15.2333C11.6771 15.3876 11.6917 15.4459 11.6917 15.4877C11.6917 15.5294 11.6771 15.5877 11.6257 15.742C11.6247 15.745 11.622 15.7528 11.608 15.7708C11.5901 15.7937 11.5667 15.818 11.5173 15.8674C11.474 15.9108 11.4016 15.9573 11.3461 15.9758C11.2088 16.0216 11.14 16.0418 11.0459 16.0418C10.9517 16.0418 10.8829 16.0216 10.7456 15.9758C10.7422 15.9747 10.7302 15.9706 10.6909 15.9431C10.6737 15.9311 10.6572 15.9189 10.6343 15.9019C10.628 15.8972 10.6212 15.8922 10.6137 15.8867C10.593 15.8714 10.569 15.8539 10.5424 15.8352C10.5138 15.8062 10.4972 15.7881 10.4838 15.7708C10.4697 15.7528 10.467 15.745 10.466 15.742C10.4567 15.7139 10.446 15.6838 10.4379 15.6608C10.4349 15.6523 10.4322 15.6449 10.4301 15.6388C10.4206 15.6115 10.4151 15.5943 10.4111 15.5795C10.405 15.5572 10.4 15.5327 10.4 15.4877C10.4 15.4459 10.4146 15.3876 10.466 15.2333ZM10.4627 6.9585H11.5374L11.3413 12.8793H10.6587L10.4627 6.9585Z" fill="white" stroke="white"/>
</svg>
