<svg width="25" height="24" viewBox="0 0 25 24" fill="none" xmlns="http://www.w3.org/2000/svg">
  <path fill-rule="evenodd" clip-rule="evenodd" d="M14.6779 9.87868C15.8495 11.0503 15.8495 12.9498 14.6779 14.1213C13.5064 15.2929 11.6069 15.2929 10.4353 14.1213C9.26373 12.9498 9.26373 11.0503 10.4353 9.87868C11.6069 8.70711 13.5064 8.70711 14.6779 9.87868Z" stroke="black" stroke-width="1.5" stroke-linecap="round" stroke-linejoin="round"/>
  <path fill-rule="evenodd" clip-rule="evenodd" d="M16.7366 18.725C17.2396 19.228 18.0566 19.228 18.5596 18.725L19.2816 18.003C19.7846 17.5 19.7846 16.683 19.2816 16.18C18.8996 15.798 18.7876 15.225 18.9976 14.727C19.0196 14.674 19.0416 14.621 19.0626 14.567C19.2456 14.101 19.6996 13.801 20.1996 13.801H20.2666C20.9786 13.801 21.5556 13.224 21.5556 12.512V11.491C21.5556 10.779 20.9786 10.202 20.2666 10.202H20.1996C19.6996 10.202 19.2456 9.901 19.0626 9.436C19.0416 9.382 19.0196 9.329 18.9976 9.276C18.7876 8.778 18.8996 8.205 19.2816 7.823C19.7846 7.32 19.7846 6.503 19.2816 6L18.5596 5.278C18.0566 4.775 17.2396 4.775 16.7366 5.278C16.3546 5.66 15.7816 5.772 15.2836 5.562C15.2306 5.54 15.1776 5.518 15.1236 5.497C14.6576 5.311 14.3566 4.856 14.3566 4.356V4.289C14.3566 3.577 13.7796 3 13.0676 3H12.0466C11.3336 3 10.7566 3.577 10.7566 4.289V4.356C10.7566 4.856 10.4556 5.31 9.99064 5.493C9.93664 5.515 9.88364 5.536 9.83064 5.559C9.33264 5.769 8.75964 5.657 8.37764 5.275C7.87464 4.772 7.05764 4.772 6.55464 5.275L5.83164 5.997C5.32864 6.5 5.32864 7.317 5.83164 7.82C6.21364 8.202 6.32564 8.775 6.11564 9.273C6.09264 9.327 6.07164 9.38 6.05064 9.434C5.86764 9.899 5.41264 10.2 4.91264 10.2H4.84564C4.13364 10.2 3.55664 10.777 3.55664 11.489V12.51C3.55664 13.223 4.13364 13.8 4.84564 13.8H4.91264C5.41264 13.8 5.86664 14.101 6.04964 14.566C6.07064 14.62 6.09264 14.673 6.11464 14.726C6.32464 15.224 6.21264 15.797 5.83064 16.179C5.32764 16.682 5.32764 17.499 5.83064 18.002L6.55264 18.724C7.05564 19.227 7.87264 19.227 8.37564 18.724C8.75764 18.342 9.33064 18.23 9.82864 18.44C9.88164 18.462 9.93464 18.484 9.98864 18.505C10.4546 18.688 10.7546 19.142 10.7546 19.642V19.709C10.7546 20.421 11.3316 20.998 12.0436 20.998H13.0646C13.7766 20.998 14.3536 20.421 14.3536 19.709V19.642C14.3536 19.142 14.6546 18.688 15.1196 18.505C15.1736 18.484 15.2266 18.462 15.2796 18.44C15.7806 18.231 16.3536 18.343 16.7366 18.725Z" stroke="black" stroke-width="1.5" stroke-linecap="round" stroke-linejoin="round"/>
</svg>
