<svg width="12" height="12" viewBox="0 0 12 12" fill="none" xmlns="http://www.w3.org/2000/svg">
<path d="M6.70002 6.00002L10.45 2.25002C10.65 2.05002 10.65 1.75002 10.45 1.55002C10.25 1.35002 9.95002 1.35002 9.75002 1.55002L6.00002 5.30002L2.25002 1.55002C2.05002 1.35002 1.75002 1.35002 1.55002 1.55002C1.35002 1.75002 1.35002 2.05002 1.55002 2.25002L5.30002 6.00002L1.55002 9.75002C1.35002 9.95002 1.35002 10.25 1.55002 10.45C1.65002 10.55 1.80002 10.6 1.90002 10.6C2.00002 10.6 2.15002 10.55 2.25002 10.45L6.00002 6.70002L9.75002 10.45C9.85003 10.55 10 10.6 10.1 10.6C10.2 10.6 10.35 10.55 10.45 10.45C10.65 10.25 10.65 9.95002 10.45 9.75002L6.70002 6.00002Z" fill="white" fill-opacity="0.8"/>
</svg>
