<svg width="1132" height="795" viewBox="0 0 1132 795" fill="none" xmlns="http://www.w3.org/2000/svg">
<ellipse cx="566.179" cy="17.6702" rx="18.8482" ry="17.6702" fill="#EFEFEF"/>
<ellipse cx="566.179" cy="17.6702" rx="18.8482" ry="17.6702" fill="#EFEFEF"/>
<ellipse cx="365.918" cy="133.116" rx="18.8482" ry="17.6702" fill="#EFEFEF"/>
<ellipse cx="766.438" cy="133.116" rx="18.8482" ry="17.6702" fill="#EFEFEF"/>
<ellipse cx="766.438" cy="364.006" rx="18.8482" ry="17.6702" fill="#EFEFEF"/>
<ellipse cx="365.918" cy="364.006" rx="18.8482" ry="17.6702" fill="#EFEFEF"/>
<ellipse cx="566.179" cy="479.451" rx="18.8482" ry="17.6702" fill="#EFEFEF"/>
<circle cx="666.309" cy="422.906" r="24.7382" fill="#EFEFEF"/>
<circle cx="466.047" cy="422.906" r="24.7382" fill="#EFEFEF"/>
<circle cx="466.047" cy="74.2148" r="24.7382" fill="#EFEFEF"/>
<circle cx="666.309" cy="74.2148" r="24.7382" fill="#EFEFEF"/>
<circle cx="765.262" cy="248.56" r="24.7382" fill="#EFEFEF"/>
<circle cx="364.738" cy="248.56" r="24.7382" fill="#EFEFEF"/>
<ellipse cx="466.048" cy="190.837" rx="29.4503" ry="30.6283" fill="#EFEFEF"/>
<ellipse cx="666.31" cy="190.837" rx="29.4503" ry="30.6283" fill="#EFEFEF"/>
<ellipse cx="666.31" cy="306.283" rx="29.4503" ry="30.6283" fill="#EFEFEF"/>
<ellipse cx="466.048" cy="306.283" rx="29.4503" ry="30.6283" fill="#EFEFEF"/>
<circle cx="566.18" cy="365.183" r="30.6283" fill="#EFEFEF"/>
<circle cx="566.177" cy="249.738" r="35.3403" fill="#EFEFEF"/>
<circle cx="566.18" cy="134.293" r="30.6283" fill="#EFEFEF"/>
<path d="M107.6 694.8C117.6 696.667 125.2 700.6 130.4 706.6C135.733 712.6 138.4 720.4 138.4 730C138.4 741.867 134.067 751 125.4 757.4C116.733 763.8 103.867 767 86.8 767H24.4V627H82.8C98 627 109.8 630.133 118.2 636.4C126.733 642.533 131 651.333 131 662.8C131 670.8 128.867 677.533 124.6 683C120.467 688.467 114.8 692.4 107.6 694.8ZM34.6 635.8V691.6H82.4C94.6667 691.6 104.067 689.267 110.6 684.6C117.267 679.8 120.6 672.8 120.6 663.6C120.6 654.533 117.267 647.667 110.6 643C104.067 638.2 94.6667 635.8 82.4 635.8H34.6ZM86.8 758.2C100.4 758.2 110.667 755.867 117.6 751.2C124.667 746.4 128.2 739.067 128.2 729.2C128.2 719.333 124.667 712.067 117.6 707.4C110.667 702.733 100.4 700.4 86.8 700.4H34.6V758.2H86.8ZM174.791 627H184.991V757.8H265.591V767H174.791V627ZM378.578 727.6H297.378L279.578 767H268.578L332.978 627H343.178L407.578 767H396.578L378.578 727.6ZM374.778 719L337.978 638.2L301.378 719H374.778ZM490.241 768C476.507 768 464.107 764.933 453.041 758.8C442.107 752.667 433.441 744.2 427.041 733.4C420.774 722.6 417.641 710.467 417.641 697C417.641 683.533 420.774 671.4 427.041 660.6C433.441 649.8 442.107 641.333 453.041 635.2C464.107 629.067 476.507 626 490.241 626C500.374 626 509.707 627.667 518.241 631C526.774 634.2 534.041 639 540.041 645.4L533.641 652C522.441 640.933 508.107 635.4 490.641 635.4C478.907 635.4 468.241 638.067 458.641 643.4C449.041 648.733 441.507 656.133 436.041 665.6C430.574 674.933 427.841 685.4 427.841 697C427.841 708.6 430.574 719.133 436.041 728.6C441.507 737.933 449.041 745.267 458.641 750.6C468.241 755.933 478.907 758.6 490.641 758.6C507.974 758.6 522.307 753 533.641 741.8L540.041 748.4C534.041 754.8 526.707 759.667 518.041 763C509.507 766.333 500.241 768 490.241 768ZM615.805 698L584.405 730.2V767H574.205V627H584.405V717L671.805 627H684.205L622.605 690.6L688.405 767H676.005L615.805 698ZM798.03 694.8C808.03 696.667 815.63 700.6 820.83 706.6C826.163 712.6 828.83 720.4 828.83 730C828.83 741.867 824.496 751 815.83 757.4C807.163 763.8 794.296 767 777.23 767H714.83V627H773.23C788.43 627 800.23 630.133 808.63 636.4C817.163 642.533 821.43 651.333 821.43 662.8C821.43 670.8 819.296 677.533 815.03 683C810.896 688.467 805.23 692.4 798.03 694.8ZM725.03 635.8V691.6H772.83C785.096 691.6 794.496 689.267 801.03 684.6C807.696 679.8 811.03 672.8 811.03 663.6C811.03 654.533 807.696 647.667 801.03 643C794.496 638.2 785.096 635.8 772.83 635.8H725.03ZM777.23 758.2C790.83 758.2 801.096 755.867 808.03 751.2C815.096 746.4 818.63 739.067 818.63 729.2C818.63 719.333 815.096 712.067 808.03 707.4C801.096 702.733 790.83 700.4 777.23 700.4H725.03V758.2H777.23ZM924.62 768C910.887 768 898.487 764.933 887.42 758.8C876.354 752.533 867.62 744 861.22 733.2C854.954 722.4 851.82 710.333 851.82 697C851.82 683.667 854.954 671.6 861.22 660.8C867.62 650 876.354 641.533 887.42 635.4C898.487 629.133 910.887 626 924.62 626C938.354 626 950.754 629.067 961.82 635.2C972.887 641.333 981.554 649.8 987.82 660.6C994.22 671.4 997.42 683.533 997.42 697C997.42 710.467 994.22 722.6 987.82 733.4C981.554 744.2 972.887 752.667 961.82 758.8C950.754 764.933 938.354 768 924.62 768ZM924.62 758.6C936.354 758.6 946.954 755.933 956.42 750.6C965.887 745.267 973.354 737.933 978.82 728.6C984.287 719.133 987.02 708.6 987.02 697C987.02 685.4 984.287 674.933 978.82 665.6C973.354 656.133 965.887 648.733 956.42 643.4C946.954 638.067 936.354 635.4 924.62 635.4C912.887 635.4 902.22 638.067 892.62 643.4C883.154 648.733 875.687 656.133 870.22 665.6C864.754 674.933 862.02 685.4 862.02 697C862.02 708.6 864.754 719.133 870.22 728.6C875.687 737.933 883.154 745.267 892.62 750.6C902.22 755.933 912.887 758.6 924.62 758.6ZM1115.52 767L1067.32 702.2L1019.32 767H1007.32L1061.12 694.8L1011.12 627H1023.12L1067.72 687.2L1112.32 627H1123.72L1073.72 694.6L1127.52 767H1115.52Z" fill="#E8E8E8"/>
</svg>
