<svg width="39" height="43" viewBox="0 0 39 43" fill="none" xmlns="http://www.w3.org/2000/svg">
<rect y="0.690308" width="39.0008" height="41.6193" rx="3" fill="#2D2F34"/>
<ellipse cx="19.5648" cy="8.67204" rx="1.04718" ry="0.981733" fill="#EFEFEF"/>
<ellipse cx="19.5648" cy="8.67204" rx="1.04718" ry="0.981733" fill="#EFEFEF"/>
<ellipse cx="8.43976" cy="15.086" rx="1.04718" ry="0.981733" fill="#EFEFEF"/>
<ellipse cx="30.6937" cy="15.086" rx="1.04718" ry="0.981733" fill="#EFEFEF"/>
<ellipse cx="30.6937" cy="27.9141" rx="1.04718" ry="0.981733" fill="#EFEFEF"/>
<ellipse cx="8.43976" cy="27.9141" rx="1.04718" ry="0.981733" fill="#EFEFEF"/>
<ellipse cx="19.5648" cy="34.3279" rx="1.04718" ry="0.981733" fill="#EFEFEF"/>
<circle cx="25.1264" cy="31.1864" r="1.37443" fill="#EFEFEF"/>
<circle cx="14.0033" cy="31.1864" r="1.37443" fill="#EFEFEF"/>
<circle cx="14.0033" cy="11.8136" r="1.37443" fill="#EFEFEF"/>
<circle cx="25.1264" cy="11.8136" r="1.37443" fill="#EFEFEF"/>
<circle cx="30.6264" cy="21.4999" r="1.37443" fill="#EFEFEF"/>
<circle cx="8.37443" cy="21.5" r="1.37443" fill="#EFEFEF"/>
<ellipse cx="14.0015" cy="18.293" rx="1.63622" ry="1.70167" fill="#EFEFEF"/>
<ellipse cx="25.1304" cy="18.293" rx="1.63622" ry="1.70167" fill="#EFEFEF"/>
<ellipse cx="25.1304" cy="24.707" rx="1.63622" ry="1.70167" fill="#EFEFEF"/>
<ellipse cx="14.0015" cy="24.707" rx="1.63622" ry="1.70167" fill="#EFEFEF"/>
<circle cx="19.565" cy="27.9794" r="1.70167" fill="#EFEFEF"/>
<circle cx="19.5631" cy="21.5655" r="1.96347" fill="#EFEFEF"/>
<circle cx="19.565" cy="15.1515" r="1.70167" fill="#EFEFEF"/>
</svg>
