<svg width="25" height="25" viewBox="0 0 25 25" fill="none" xmlns="http://www.w3.org/2000/svg">
<path d="M8.59391 2.60425C6.73353 2.60425 5.2085 4.12928 5.2085 5.98967V21.6147C5.20854 21.7585 5.24827 21.8995 5.32331 22.0221C5.39834 22.1448 5.50578 22.2444 5.63379 22.3099C5.7618 22.3755 5.9054 22.4044 6.0488 22.3935C6.19219 22.3827 6.32981 22.3325 6.44649 22.2484L12.5002 17.8895L18.5538 22.2484C18.6705 22.3325 18.8081 22.3827 18.9515 22.3935C19.0949 22.4044 19.2385 22.3755 19.3665 22.3099C19.4945 22.2444 19.602 22.1448 19.677 22.0221C19.7521 21.8995 19.7918 21.7585 19.7918 21.6147V5.98967C19.7918 4.12928 18.2668 2.60425 16.4064 2.60425H8.59391ZM8.59391 4.16675H16.4064C17.4221 4.16675 18.2293 4.97401 18.2293 5.98967V20.0898L12.9569 16.2934C12.8239 16.1976 12.6641 16.146 12.5002 16.146C12.3362 16.146 12.1764 16.1976 12.0434 16.2934L6.771 20.0898V5.98967C6.771 4.97401 7.57826 4.16675 8.59391 4.16675Z" fill="#DEDEDE"/>
</svg>
